<svg xmlns="http://www.w3.org/2000/svg" width="500" height="375"><polygon points="2000,4000 1896.0441545911203,3989.0738003669026 1796.6316784621,3956.7727288213005 1706.1073738537634,3904.5084971874735 1628.427587261303,3834.565303179429 1566.9872981077808,3750 1524.471741852423,3654.5084971874735 1502.7390523158633,3552.2642316338265 1502.7390523158633,3447.7357683661735 1524.471741852423,3345.4915028125265 1566.9872981077806,3250 1628.4275872613027,3165.4346968205714 1706.1073738537634,3095.4915028125265 1796.6316784621,3043.2272711786995 1896.0441545911206,3010.9261996330974 2000,3000 2103.955845408879,3010.9261996330974 2203.3683215378996,3043.2272711786995 2293.8926261462366,3095.4915028125265 2371.572412738697,3165.434696820571 2433.0127018922194,3250 2475.5282581475767,3345.4915028125265 2497.2609476841367,3447.735768366173 2497.2609476841367,3552.2642316338265 2475.5282581475767,3654.5084971874735 2433.0127018922194,3750 2371.572412738697,3834.565303179429 2293.8926261462366,3904.5084971874735 2203.3683215379,3956.7727288213005 2103.95584540888,3989.0738003669026" fill="#99ccff" stroke="#000" /></svg>